<?xml version="1.0" encoding="UTF-8"?> <svg xmlns="http://www.w3.org/2000/svg" width="948" height="946" viewBox="0 0 948 946" fill="none"> <rect width="948" height="946" fill="white"></rect> <path d="M205.05 539.069C208.005 436.146 287.897 349.108 391.22 336.386C374.42 353.995 365.551 375.772 364.831 401.288C363.172 459.577 404.415 514.2 476.519 549.49C538.672 579.533 563.332 606.126 562.321 642.063C560.519 705.024 492.021 755.838 411.914 753.61C296.621 750.376 201.804 651.91 204.977 538.925V539.14L205.05 539.069ZM167.268 537.99C163.374 674.263 271.817 787.175 410.616 791.272C509.902 794.074 597.941 725.149 600.248 642.782C601.69 592.901 570.975 555.24 499.88 519.519C494.689 516.932 491.732 511.397 491.949 504.713C492.165 497.454 498.871 487.463 512.57 474.311C547.757 437.009 559.798 416.237 560.519 391.801C562.177 338.399 506.081 299.371 424.676 297.071C286.022 293.191 171.161 400.713 167.268 537.919V537.99ZM522.664 391.801C522.449 399.994 519.42 406.822 511.417 417.963L482.936 450.665C464.694 469.855 457.412 481.211 455.104 494.004C424.387 472.37 402.253 432.265 403.117 400.065C404.055 366.142 430.228 342.208 465.126 343.214C496.564 344.077 523.242 366.788 522.52 391.872H522.664V391.801Z" fill="black"></path> <path d="M55.808 145.22L78.3763 164.842L44.7041 203.222L116.158 265.464L94.0228 290.764L0 208.9L55.808 145.22Z" fill="black"></path> <path d="M246.15 82.3317C234.973 59.2604 211.684 50.5637 189.404 61.2009L136.553 86.5722L190.703 198.622L221.057 184.033L204.834 150.396L228.196 139.184C249.754 128.834 257.253 105.331 246.15 82.2598V82.3317ZM210.963 114.387L191.856 123.586L179.958 98.9345L199.066 89.7346C204.907 86.9316 211.684 90.0222 215.145 97.2095C218.606 104.397 216.803 111.584 210.963 114.387Z" fill="black"></path> <path d="M460.527 21.0222V145.435H426.855V74.7834L379.195 145.435H345.45V21.0222H379.195V91.458L426.855 21.0222H460.527Z" fill="black"></path> <path d="M662.193 88.7237L691.9 104.464L633.352 214.286L603.573 198.546L626.359 155.925L584.466 133.716L561.753 176.338L531.975 160.597L590.523 50.7747L620.301 66.5148L598.526 107.411L640.346 129.547L662.193 88.7237Z" fill="black"></path> <path d="M914.844 458.804L909.292 430.701L776.839 403.893L783.544 438.033L804.022 441.123L813.107 485.972L795.08 496.609L802.292 533.193L914.773 458.732L914.844 458.804ZM833.007 444.932L872.881 451.041L838.27 471.741L833.007 444.861V444.932Z" fill="black"></path> <path d="M895.663 701.658L839.207 638.05L907.561 655.586L915.997 623.1L795.152 592.051L786.716 624.609L843.461 688.217L774.819 670.608L766.454 703.167L887.3 734.144L895.663 701.658Z" fill="black"></path> <path d="M910.794 702.947L937.4 709.775L947.999 668.519L921.393 661.979L910.794 702.947Z" fill="black"></path> <path d="M756.647 921.813L734.078 902.551L760.901 871.359L688.726 809.691L710.644 784.176L782.82 845.844L809.643 814.723L832.211 833.984L756.647 921.813Z" fill="black"></path> <path d="M755.009 248.571C770.944 236.64 790.196 239.372 802.453 255.687C814.711 272.001 805.337 293.923 805.337 293.923L836.054 303.626C836.054 303.626 851.771 269.414 827.4 236.999C801.587 202.788 764.959 197.613 734.027 220.756C703.094 243.899 697.904 280.483 723.644 314.694C748.088 347.109 785.437 341.575 785.437 341.575L784.644 309.448C784.644 309.448 761.354 312.898 748.592 296.008C735.83 279.117 739.002 260.502 755.009 248.571Z" fill="black"></path> </svg> 